<mxfile host="app.diagrams.net" modified="2023-12-27T06:24:56.974Z" agent="Mozilla/5.0 (Windows NT 10.0; Win64; x64) AppleWebKit/537.36 (KHTML, like Gecko) Chrome/120.0.0.0 Safari/537.36" etag="iPDZY6X9YAEEQQs6eqWC" version="22.1.12" type="google">
  <diagram name="第 1 页" id="N4q0IM85U7iNAYb2XV-U">
    <mxGraphModel grid="1" page="1" gridSize="10" guides="1" tooltips="1" connect="1" arrows="1" fold="1" pageScale="1" pageWidth="827" pageHeight="1169" math="0" shadow="0">
      <root>
        <mxCell id="0" />
        <mxCell id="1" parent="0" />
        <mxCell id="Eoxwg7Eb8q7yLTl3kgs5-3" value=":CarCatalog" style="shape=umlLifeline;perimeter=lifelinePerimeter;whiteSpace=wrap;html=1;container=1;dropTarget=0;collapsible=0;recursiveResize=0;outlineConnect=0;portConstraint=eastwest;newEdgeStyle={&quot;curved&quot;:0,&quot;rounded&quot;:0};fillColor=#B9E0A5;" vertex="1" parent="1">
          <mxGeometry x="360" y="130" width="100" height="410" as="geometry" />
        </mxCell>
        <mxCell id="Eoxwg7Eb8q7yLTl3kgs5-31" value="" style="html=1;points=[[0,0,0,0,5],[0,1,0,0,-5],[1,0,0,0,5],[1,1,0,0,-5]];perimeter=orthogonalPerimeter;outlineConnect=0;targetShapes=umlLifeline;portConstraint=eastwest;newEdgeStyle={&quot;curved&quot;:0,&quot;rounded&quot;:0};fontSize=16;strokeColor=#000000;fillColor=#B9E0A5;" vertex="1" parent="Eoxwg7Eb8q7yLTl3kgs5-3">
          <mxGeometry x="44" y="70" width="16" height="50" as="geometry" />
        </mxCell>
        <mxCell id="Eoxwg7Eb8q7yLTl3kgs5-6" value=": SystemAssitant" style="shape=umlLifeline;perimeter=lifelinePerimeter;whiteSpace=wrap;html=1;container=1;dropTarget=0;collapsible=0;recursiveResize=0;outlineConnect=0;portConstraint=eastwest;newEdgeStyle={&quot;curved&quot;:0,&quot;rounded&quot;:0};fillColor=#B9E0A5;" vertex="1" parent="1">
          <mxGeometry x="160" y="130" width="100" height="410" as="geometry" />
        </mxCell>
        <mxCell id="Eoxwg7Eb8q7yLTl3kgs5-7" value="" style="html=1;points=[[0,0,0,0,5],[0,1,0,0,-5],[1,0,0,0,5],[1,1,0,0,-5]];perimeter=orthogonalPerimeter;outlineConnect=0;targetShapes=umlLifeline;portConstraint=eastwest;newEdgeStyle={&quot;curved&quot;:0,&quot;rounded&quot;:0};fillColor=#B9E0A5;" vertex="1" parent="Eoxwg7Eb8q7yLTl3kgs5-6">
          <mxGeometry x="45" y="70" width="10" height="50" as="geometry" />
        </mxCell>
        <mxCell id="Eoxwg7Eb8q7yLTl3kgs5-9" value="" style="html=1;points=[[0,0,0,0,5],[0,1,0,0,-5],[1,0,0,0,5],[1,1,0,0,-5]];perimeter=orthogonalPerimeter;outlineConnect=0;targetShapes=umlLifeline;portConstraint=eastwest;newEdgeStyle={&quot;curved&quot;:0,&quot;rounded&quot;:0};fillColor=#B9E0A5;" vertex="1" parent="Eoxwg7Eb8q7yLTl3kgs5-6">
          <mxGeometry x="45" y="310" width="10" height="50" as="geometry" />
        </mxCell>
        <mxCell id="Eoxwg7Eb8q7yLTl3kgs5-12" value="" style="endArrow=classic;html=1;rounded=0;" edge="1" parent="1" source="Eoxwg7Eb8q7yLTl3kgs5-9" target="Eoxwg7Eb8q7yLTl3kgs5-3">
          <mxGeometry width="50" height="50" relative="1" as="geometry">
            <mxPoint x="290" y="420" as="sourcePoint" />
            <mxPoint x="370" y="350" as="targetPoint" />
          </mxGeometry>
        </mxCell>
        <mxCell id="Eoxwg7Eb8q7yLTl3kgs5-13" value="" style="shape=umlLifeline;perimeter=lifelinePerimeter;whiteSpace=wrap;html=1;container=1;dropTarget=0;collapsible=0;recursiveResize=0;outlineConnect=0;portConstraint=eastwest;newEdgeStyle={&quot;curved&quot;:0,&quot;rounded&quot;:0};participant=umlActor;fontSize=16;fillColor=#B9E0A5;" vertex="1" parent="1">
          <mxGeometry x="60" y="140" width="22" height="330" as="geometry" />
        </mxCell>
        <mxCell id="Eoxwg7Eb8q7yLTl3kgs5-16" value="" style="html=1;points=[[0,0,0,0,5],[0,1,0,0,-5],[1,0,0,0,5],[1,1,0,0,-5]];perimeter=orthogonalPerimeter;outlineConnect=0;targetShapes=umlLifeline;portConstraint=eastwest;newEdgeStyle={&quot;curved&quot;:0,&quot;rounded&quot;:0};fontSize=16;fillColor=#B9E0A5;" vertex="1" parent="Eoxwg7Eb8q7yLTl3kgs5-13">
          <mxGeometry x="6" y="90" width="10" height="50" as="geometry" />
        </mxCell>
        <mxCell id="Eoxwg7Eb8q7yLTl3kgs5-17" value="" style="html=1;points=[[0,0,0,0,5],[0,1,0,0,-5],[1,0,0,0,5],[1,1,0,0,-5]];perimeter=orthogonalPerimeter;outlineConnect=0;targetShapes=umlLifeline;portConstraint=eastwest;newEdgeStyle={&quot;curved&quot;:0,&quot;rounded&quot;:0};fontSize=16;fillColor=#B9E0A5;" vertex="1" parent="Eoxwg7Eb8q7yLTl3kgs5-13">
          <mxGeometry x="6" y="220" width="10" height="50" as="geometry" />
        </mxCell>
        <mxCell id="Eoxwg7Eb8q7yLTl3kgs5-8" value="findCar()" style="html=1;verticalAlign=bottom;startArrow=none;endArrow=block;startSize=8;curved=0;rounded=0;entryX=0;entryY=0;entryDx=0;entryDy=5;startFill=0;exitX=1;exitY=0;exitDx=0;exitDy=5;exitPerimeter=0;" edge="1" parent="1" source="Eoxwg7Eb8q7yLTl3kgs5-16" target="Eoxwg7Eb8q7yLTl3kgs5-7">
          <mxGeometry relative="1" as="geometry">
            <mxPoint x="80" y="255" as="sourcePoint" />
          </mxGeometry>
        </mxCell>
        <mxCell id="Eoxwg7Eb8q7yLTl3kgs5-20" value="" style="endArrow=classic;html=1;rounded=0;fontSize=12;startSize=8;endSize=8;curved=1;entryX=1.067;entryY=0.453;entryDx=0;entryDy=0;entryPerimeter=0;dashed=1;" edge="1" parent="1" target="Eoxwg7Eb8q7yLTl3kgs5-17">
          <mxGeometry width="50" height="50" relative="1" as="geometry">
            <mxPoint x="90" y="370" as="sourcePoint" />
            <mxPoint x="100" y="430" as="targetPoint" />
          </mxGeometry>
        </mxCell>
        <mxCell id="Eoxwg7Eb8q7yLTl3kgs5-18" value="" style="html=1;points=[[0,0,0,0,5],[0,1,0,0,-5],[1,0,0,0,5],[1,1,0,0,-5]];perimeter=orthogonalPerimeter;outlineConnect=0;targetShapes=umlLifeline;portConstraint=eastwest;newEdgeStyle={&quot;curved&quot;:0,&quot;rounded&quot;:0};fontSize=16;fillColor=#B9E0A5;" vertex="1" parent="1">
          <mxGeometry x="155" y="350" width="10" height="50" as="geometry" />
        </mxCell>
        <mxCell id="Eoxwg7Eb8q7yLTl3kgs5-22" value="" style="endArrow=none;dashed=1;html=1;rounded=0;fontSize=12;startSize=8;endSize=8;curved=1;" edge="1" parent="1" source="Eoxwg7Eb8q7yLTl3kgs5-18" target="Eoxwg7Eb8q7yLTl3kgs5-7">
          <mxGeometry width="50" height="50" relative="1" as="geometry">
            <mxPoint x="145" y="350" as="sourcePoint" />
            <mxPoint x="340" y="360" as="targetPoint" />
          </mxGeometry>
        </mxCell>
        <mxCell id="Eoxwg7Eb8q7yLTl3kgs5-23" value="&lt;font style=&quot;font-size: 12px;&quot;&gt;[no Car found]&lt;/font&gt;" style="text;html=1;align=center;verticalAlign=middle;resizable=0;points=[];autosize=1;strokeColor=none;fillColor=none;fontSize=16;" vertex="1" parent="1">
          <mxGeometry x="110" y="300" width="100" height="30" as="geometry" />
        </mxCell>
        <mxCell id="Eoxwg7Eb8q7yLTl3kgs5-24" value="&lt;font style=&quot;font-size: 9px;&quot;&gt;[noCarfound]&lt;/font&gt;" style="text;html=1;align=center;verticalAlign=middle;resizable=0;points=[];autosize=1;strokeColor=none;fillColor=none;fontSize=16;" vertex="1" parent="1">
          <mxGeometry x="80" y="350" width="80" height="30" as="geometry" />
        </mxCell>
        <mxCell id="Eoxwg7Eb8q7yLTl3kgs5-27" value="&lt;font style=&quot;font-size: 12px;&quot;&gt;[Car found]&lt;/font&gt;" style="text;html=1;align=center;verticalAlign=middle;resizable=0;points=[];autosize=1;strokeColor=none;fillColor=none;fontSize=16;" vertex="1" parent="1">
          <mxGeometry x="180" y="370" width="80" height="30" as="geometry" />
        </mxCell>
        <mxCell id="Eoxwg7Eb8q7yLTl3kgs5-28" value=":Car" style="shape=umlLifeline;perimeter=lifelinePerimeter;whiteSpace=wrap;html=1;container=1;dropTarget=0;collapsible=0;recursiveResize=0;outlineConnect=0;portConstraint=eastwest;newEdgeStyle={&quot;curved&quot;:0,&quot;rounded&quot;:0};fillColor=#B9E0A5;" vertex="1" parent="1">
          <mxGeometry x="520" y="130" width="100" height="410" as="geometry" />
        </mxCell>
        <mxCell id="Eoxwg7Eb8q7yLTl3kgs5-32" value="findCar()" style="html=1;verticalAlign=bottom;endArrow=block;curved=0;rounded=0;entryX=0;entryY=0;entryDx=0;entryDy=5;fontSize=12;startSize=8;endSize=8;" edge="1" parent="1" source="Eoxwg7Eb8q7yLTl3kgs5-7" target="Eoxwg7Eb8q7yLTl3kgs5-31">
          <mxGeometry relative="1" as="geometry">
            <mxPoint x="260" y="225" as="sourcePoint" />
          </mxGeometry>
        </mxCell>
        <mxCell id="Eoxwg7Eb8q7yLTl3kgs5-33" value="" style="html=1;verticalAlign=bottom;endArrow=open;dashed=1;endSize=8;curved=0;rounded=0;fontSize=12;" edge="1" parent="1" target="Eoxwg7Eb8q7yLTl3kgs5-7">
          <mxGeometry relative="1" as="geometry">
            <mxPoint x="220" y="230" as="targetPoint" />
            <Array as="points">
              <mxPoint x="340.37" y="230" />
            </Array>
            <mxPoint x="404.37" y="230" as="sourcePoint" />
          </mxGeometry>
        </mxCell>
        <mxCell id="6vKl1TdwV8IASmtikVPX-1" value="管理者" style="text;html=1;align=center;verticalAlign=middle;resizable=0;points=[];autosize=1;strokeColor=none;fillColor=none;fontSize=16;" vertex="1" parent="1">
          <mxGeometry x="40" y="188" width="70" height="30" as="geometry" />
        </mxCell>
      </root>
    </mxGraphModel>
  </diagram>
</mxfile>
